<?xml version="1.0" standalone="no"?>
<!DOCTYPE svg PUBLIC "-//W3C//DTD SVG 20010904//EN"
 "http://www.w3.org/TR/2001/REC-SVG-20010904/DTD/svg10.dtd">
<svg version="1.0" xmlns="http://www.w3.org/2000/svg"
 width="736.000000pt" height="736.000000pt" viewBox="0 0 736.000000 736.000000"
 preserveAspectRatio="xMidYMid meet">
<metadata>
Created by potrace 1.14, written by Peter Selinger 2001-2017
</metadata>
<g transform="translate(0.000000,736.000000) scale(0.100000,-0.100000)"
fill="#000000" stroke="none">
<path d="M2381 7298 c-20 -60 -67 -345 -58 -354 2 -2 14 56 26 129 12 72 31
165 42 206 24 92 18 104 -10 19z"/>
<path d="M2960 7288 c-18 -40 -35 -82 -36 -94 -1 -11 -10 -49 -19 -83 -9 -35
-14 -65 -12 -67 2 -2 14 33 26 78 13 46 38 118 56 161 42 98 29 102 -15 5z"/>
<path d="M5647 7313 c-4 -3 -7 -176 -7 -383 0 -400 -4 -452 -56 -710 -30 -149
-33 -162 -42 -156 -4 2 -7 -17 -8 -43 -2 -104 -116 -482 -185 -616 -23 -44
-49 -102 -59 -130 -10 -27 -19 -44 -19 -38 -1 20 43 131 87 218 22 44 47 105
55 135 31 112 68 246 78 277 12 39 15 135 5 152 -5 7 -14 10 -21 7 -7 -2 -15
4 -18 15 -6 22 3 25 21 7 7 -7 12 -8 12 -3 -1 15 -26 45 -38 45 -6 0 -12 6
-14 12 -3 8 -10 3 -18 -12 -7 -13 -20 -31 -29 -40 -13 -13 -14 -13 -8 3 5 12
0 28 -14 45 l-21 27 6 -35 c6 -32 5 -33 -5 -10 l-12 25 -7 -25 c-7 -23 -8 -22
-9 10 -1 20 5 42 12 49 10 11 10 13 0 7 -10 -6 -13 15 -13 88 0 105 -25 438
-40 531 -5 33 -10 64 -10 68 0 5 -5 5 -11 2 -6 -4 -7 -19 -4 -35 7 -31 -25
-158 -56 -228 -11 -24 -17 -48 -14 -53 4 -5 2 -9 -2 -9 -5 0 -17 -24 -27 -52
-51 -145 -152 -341 -261 -507 -52 -79 -95 -147 -95 -150 -1 -16 -51 -61 -62
-55 -6 4 -8 3 -4 -4 3 -5 3 -12 -1 -15 -5 -2 -2 -2 6 0 9 2 11 -2 6 -14 -4
-13 0 -11 16 5 22 25 32 25 147 5 32 -5 39 0 110 73 43 44 99 103 126 132 26
29 49 52 51 50 1 -2 -6 -75 -16 -163 -10 -87 -15 -163 -13 -167 3 -5 20 -15
37 -24 46 -24 106 -73 118 -97 10 -19 8 -19 -17 4 -36 33 -154 109 -168 109
-6 -1 5 -9 25 -20 19 -10 42 -26 50 -36 13 -16 12 -16 -18 -1 -39 21 -44 21
-37 2 4 -9 -2 -18 -17 -24 -13 -5 -32 -17 -41 -28 -27 -29 -39 -37 -123 -77
-44 -22 -99 -52 -123 -68 -24 -15 -59 -35 -78 -43 -19 -8 -34 -19 -34 -24 0
-6 -16 -17 -35 -26 -35 -14 -74 -45 -58 -45 4 0 -11 -10 -35 -21 -24 -12 -48
-32 -52 -45 -5 -13 -21 -26 -35 -30 -22 -5 -31 -16 -22 -27 1 -2 -4 -11 -11
-20 -8 -9 -11 -20 -8 -25 3 -6 -5 -17 -19 -26 -14 -9 -25 -23 -25 -32 0 -18
15 -15 108 28 36 15 67 27 69 25 2 -2 -56 -31 -129 -65 -73 -33 -190 -88 -260
-121 -137 -65 -238 -111 -245 -111 -3 0 -3 75 -1 168 5 164 14 214 62 347 l8
20 -17 -20 c-9 -11 -27 -41 -40 -66 -22 -42 -29 -47 -82 -62 -32 -8 -80 -18
-108 -22 -51 -6 -206 9 -247 24 -21 8 -19 11 30 37 127 69 343 214 336 225 -3
5 1 7 8 4 10 -3 169 113 265 195 14 12 61 6 77 -10 7 -7 6 -14 -2 -22 -9 -9
-15 -9 -24 1 -11 10 -10 11 5 6 9 -4 17 -3 17 3 0 16 -24 21 -37 7 -6 -7 -9
-15 -6 -19 3 -3 0 -14 -8 -23 -13 -17 -13 -17 5 -3 18 14 19 13 13 -4 -6 -14
1 -11 27 10 19 16 33 34 31 40 -2 6 2 11 8 10 7 0 59 22 117 51 l106 51 23 69
c12 37 26 77 31 88 29 72 62 203 84 340 9 55 26 147 36 205 19 101 53 421 46
428 -2 2 -10 -14 -16 -35 -7 -21 -23 -59 -36 -85 -13 -26 -24 -53 -24 -60 1
-7 10 6 20 29 21 44 41 65 34 36 -2 -10 -6 -43 -8 -73 -5 -84 -37 -303 -47
-320 -6 -10 -9 -3 -10 25 -1 34 -2 36 -8 15 -4 -14 -7 -37 -6 -52 1 -17 -4
-28 -12 -28 -8 0 -13 -11 -13 -27 l0 -28 19 24 19 25 -5 -26 c-3 -18 -11 -25
-26 -24 -11 0 -22 -4 -24 -10 -6 -17 29 -27 39 -12 5 9 8 7 8 -7 0 -11 -5 -27
-11 -35 -9 -12 -10 -12 -5 4 5 15 4 17 -7 8 -8 -7 -17 -9 -20 -5 -4 3 -7 1 -7
-6 0 -8 -8 -11 -20 -8 -11 3 -20 1 -20 -5 0 -5 -4 -7 -9 -4 -5 3 -11 0 -14 -8
-5 -11 0 -13 23 -6 23 7 28 5 23 -6 -3 -8 -15 -14 -27 -15 -11 0 -15 -3 -8 -6
7 -3 20 -1 30 3 9 4 21 6 26 5 5 -1 6 5 3 14 -4 9 -1 15 7 15 12 0 31 -29 24
-35 -2 -2 -28 -8 -58 -14 -85 -18 -200 -54 -200 -63 0 -4 -10 -7 -22 -7 -17 1
-18 3 -6 6 9 2 15 10 12 18 -3 8 -1 22 6 32 10 16 10 15 6 -7 -5 -19 -2 -17 9
8 8 17 21 32 28 32 8 0 7 3 -3 10 -12 8 -12 11 2 27 10 10 29 44 43 75 20 44
30 56 43 52 10 -4 13 -2 7 3 -5 4 -13 12 -16 16 -3 4 -23 -23 -43 -60 -20 -37
-46 -81 -56 -98 -11 -16 -27 -43 -36 -60 -26 -46 -94 -145 -113 -164 -17 -17
-91 -120 -126 -173 -9 -16 -13 -28 -7 -28 6 0 21 17 33 38 13 20 40 61 62 90
34 47 41 52 55 40 15 -11 15 -11 5 3 -11 13 -8 20 13 40 21 20 27 21 35 9 8
-11 9 -7 5 18 -3 19 -1 32 5 32 6 0 8 -4 5 -9 -6 -9 16 -21 37 -21 7 0 6 4 -3
10 -11 7 -5 9 22 8 21 -1 35 -5 32 -10 -3 -4 3 -8 12 -8 26 0 6 -17 -50 -44
-41 -20 -45 -24 -31 -36 13 -11 14 -15 2 -29 -8 -9 -17 -28 -21 -42 -9 -39
-87 -115 -114 -111 -12 2 -22 8 -22 13 0 6 -5 7 -11 3 -8 -5 -8 -9 1 -14 7 -4
9 -16 6 -28 -6 -19 -9 -19 -36 -5 -16 8 -34 12 -39 9 -5 -3 -12 6 -16 21 l-6
26 -22 -36 c-50 -81 -165 -200 -237 -242 -10 -6 -25 -17 -34 -24 -9 -7 -23
-10 -32 -7 -15 6 -15 4 -3 -10 13 -16 12 -16 -8 -5 -18 9 -23 9 -23 -1 0 -9
-3 -9 -12 0 -17 17 -28 15 -28 -5 0 -14 2 -15 9 -4 6 9 8 4 7 -17 -1 -17 -4
-33 -8 -37 -6 -6 -30 56 -27 71 5 31 -9 23 -78 -43 -43 -41 -78 -78 -78 -83 0
-5 -6 -15 -14 -22 -11 -11 -13 -11 -6 1 5 9 3 12 -6 9 -8 -3 -13 -11 -11 -17
1 -7 -2 -10 -7 -7 -5 3 -16 -5 -24 -17 -8 -13 -22 -24 -30 -24 -7 0 -43 -20
-78 -45 -68 -47 -199 -123 -199 -114 0 3 12 12 28 20 33 18 82 60 82 71 0 5
29 61 64 125 55 101 96 191 69 153 -20 -28 -42 13 -68 125 -26 111 -27 114 -9
135 17 20 17 20 1 8 -10 -8 -31 -31 -48 -53 -23 -28 -26 -36 -12 -31 14 5 13
1 -6 -20 -14 -15 -29 -27 -34 -27 -6 0 -67 -56 -136 -125 -127 -126 -221 -205
-124 -104 29 30 61 65 70 79 31 45 84 163 80 179 -4 13 -5 13 -6 -1 0 -10 -7
-18 -15 -18 -8 0 -17 -6 -19 -12 -3 -7 -6 5 -8 27 -1 22 -4 31 -6 19 -3 -17
-10 -20 -41 -16 -20 2 -74 5 -120 6 -63 0 -85 -3 -92 -14 -8 -12 -10 -10 -11
10 -1 17 -3 19 -6 8 -6 -22 -17 -23 -34 -1 -11 13 -14 68 -14 259 0 134 -3
236 -7 226 -4 -9 -7 -118 -7 -242 -1 -176 2 -231 13 -252 10 -19 11 -30 4 -34
-7 -5 -8 -2 -4 7 4 8 1 5 -6 -5 -20 -29 -71 -77 -76 -71 -8 7 -62 -25 -62 -37
0 -6 -3 -9 -6 -5 -4 3 -19 0 -35 -8 -33 -17 -48 -37 -22 -29 14 5 15 4 4 -4
-8 -6 -21 -8 -29 -4 -10 3 -13 1 -8 -6 5 -8 2 -10 -8 -6 -11 4 -16 0 -16 -10
0 -24 -37 -57 -56 -49 -12 4 -15 3 -10 -5 4 -7 1 -12 -6 -12 -8 0 -23 -7 -34
-15 -10 -8 19 0 66 17 47 17 91 35 98 41 7 5 15 7 19 4 3 -4 -11 -14 -33 -23
-116 -48 -449 -203 -633 -293 -46 -23 -85 -40 -86 -39 -11 14 -47 149 -56 208
-18 120 -30 137 -24 35 8 -147 44 -253 133 -399 98 -160 201 -243 375 -302 92
-32 254 -47 351 -34 249 35 519 188 636 359 43 64 102 178 120 234 l12 39 22
-21 c75 -70 439 -127 553 -87 l40 14 5 -151 c5 -136 8 -162 36 -243 38 -112
94 -208 182 -312 93 -108 195 -173 420 -266 90 -37 105 -46 103 -65 -4 -31
-167 -436 -202 -501 -35 -65 -110 -219 -115 -237 -5 -15 -2 -23 11 -27 10 -3
-25 -3 -77 -1 -85 5 -387 43 -939 120 -214 29 -363 47 -631 75 -206 21 -278
38 -379 91 -69 36 -88 31 -145 -36 -51 -62 -60 -89 -40 -130 53 -111 416 -464
624 -605 192 -130 443 -195 750 -194 161 0 181 3 254 27 44 14 83 24 88 21 16
-10 -27 -65 -120 -156 l-92 -91 -138 7 c-164 9 -349 29 -450 51 -86 18 -82 17
-82 6 0 -4 25 -16 55 -26 53 -16 79 -33 33 -20 -23 6 -23 6 -3 -11 55 -46 256
-122 400 -152 28 -6 62 -13 78 -16 45 -10 50 -1 -151 -336 -41 -69 -93 -150
-115 -180 -49 -66 -137 -160 -149 -160 -5 0 -16 -7 -24 -15 -9 -8 -25 -15 -38
-15 -12 0 -30 -6 -41 -13 -20 -16 -67 -10 -150 18 -127 43 -194 110 -451 448
-104 137 -265 348 -358 470 -92 122 -195 262 -228 310 -32 48 -63 85 -69 82
-5 -4 -6 -12 -3 -18 34 -59 415 -573 498 -672 23 -27 57 -72 76 -100 53 -80
254 -350 262 -353 5 -2 8 -8 8 -13 0 -5 15 -23 33 -40 27 -26 28 -28 5 -14
-17 11 -28 13 -33 6 -3 -6 -1 -11 5 -11 6 0 19 -8 28 -17 16 -16 16 -16 -1
-10 -21 8 -48 -17 -62 -57 -7 -22 -20 -33 -50 -42 l-40 -13 43 5 c30 4 42 2
37 -5 -3 -6 -27 -11 -53 -12 -38 0 -43 -2 -24 -9 12 -5 30 -7 40 -4 15 5 15 4
1 -5 -11 -7 -27 -7 -50 -1 -19 6 -46 10 -60 10 -15 0 -38 9 -52 20 -14 11 -31
20 -39 20 -7 -1 -2 -7 12 -16 l25 -15 -30 5 c-16 3 -82 13 -145 22 -63 9 -118
20 -122 23 -4 3 -20 98 -37 211 -34 229 -47 288 -62 273 -7 -7 -2 -63 15 -164
14 -85 28 -190 32 -233 6 -72 6 -79 -10 -73 -37 14 -245 67 -264 67 -19 0 -20
9 -26 123 -3 67 -10 356 -16 642 -11 517 -16 582 -48 608 -13 10 -15 9 -9 -6
13 -35 17 -91 22 -344 2 -139 8 -336 11 -437 l7 -184 -59 -12 c-106 -20 -317
-80 -369 -104 -28 -12 -58 -31 -68 -41 -18 -17 -17 -19 8 -45 14 -14 22 -30
18 -35 -5 -4 0 -5 9 -2 10 3 22 -1 30 -11 11 -15 11 -16 -2 -7 -8 6 -28 10
-44 10 -24 0 -31 -5 -38 -30 -17 -62 -20 -81 -20 -107 1 -16 -2 -28 -7 -28
-10 0 -33 -101 -37 -170 -2 -30 -10 -84 -18 -120 -8 -36 -16 -81 -17 -100 -2
-19 -6 -39 -10 -45 -4 -5 -10 -30 -14 -55 -3 -25 -10 -67 -15 -95 -5 -27 -14
-81 -21 -120 -6 -38 -14 -74 -17 -79 -3 -5 -6 -22 -7 -38 -2 -16 -8 -49 -15
-74 l-13 -44 -127 0 c-172 0 -219 -7 -230 -35 -8 -21 -126 -105 -148 -105 -7
0 -12 -5 -12 -10 0 -6 -3 -9 -7 -8 -5 2 -9 -1 -10 -6 -1 -5 -22 -18 -47 -29
-25 -11 -46 -23 -46 -27 0 -22 -273 -90 -362 -90 -5 0 -8 -74 -8 -165 l0 -165
3095 0 c1702 0 3095 2 3095 5 0 2 -22 16 -49 29 -109 56 -228 157 -301 257
-14 19 -57 66 -96 105 -69 71 -71 72 -185 107 -63 20 -147 43 -187 52 -111 26
-116 32 -151 220 -33 176 -50 292 -81 555 -30 248 -49 380 -61 416 -15 49
-177 179 -236 190 -18 3 -33 9 -33 13 0 16 73 157 95 183 13 15 26 41 30 58 4
16 11 30 16 30 8 0 2 -21 -22 -75 -5 -11 -8 -38 -7 -60 1 -22 -1 -64 -6 -92
-5 -33 -4 -53 2 -53 5 0 12 23 15 50 6 50 35 139 112 345 52 140 68 170 133
252 75 94 145 211 235 395 l72 147 80 -6 c104 -7 126 2 256 114 136 116 240
195 368 278 175 112 275 223 327 363 27 70 99 366 110 452 4 28 9 50 13 50 3
0 51 -84 105 -188 115 -215 137 -254 142 -249 3 2 -7 30 -21 62 -14 32 -32 86
-40 120 -28 119 -69 672 -48 650 5 -5 21 -26 35 -46 50 -67 130 -149 141 -142
6 3 7 1 3 -6 -11 -17 157 -177 301 -288 98 -74 100 -75 100 -58 0 8 -6 15 -13
15 -7 0 -16 4 -19 10 -3 5 0 8 7 7 7 -2 10 -2 5 0 -4 3 -4 10 -1 15 4 6 2 8
-4 4 -6 -3 -22 -1 -35 5 -18 8 -24 18 -22 35 1 13 -2 21 -6 18 -5 -3 -22 5
-39 17 -16 13 -32 20 -36 17 -3 -4 8 -14 25 -23 17 -8 31 -20 31 -25 0 -13 -6
-13 -22 3 -7 7 -26 23 -43 36 -16 13 -22 21 -12 18 24 -9 22 15 -3 38 -11 10
-28 15 -39 12 -22 -5 -57 25 -47 42 7 10 -64 87 -76 84 -4 -2 -5 4 -2 12 4 9
-2 18 -17 23 -16 6 -18 10 -8 14 20 8 71 -38 67 -59 -2 -10 4 -19 15 -21 14
-3 17 4 17 41 0 50 -6 60 -30 47 -11 -6 -17 -5 -17 3 0 7 -4 20 -8 30 -9 20 8
23 27 4 21 -21 33 -10 32 29 -2 36 -14 62 -14 30 0 -10 -5 -14 -11 -10 -6 3
-8 15 -6 26 6 22 -12 58 -28 58 -6 0 -17 16 -24 35 -13 36 -25 44 -35 23 -3
-7 -4 -4 -1 8 3 12 -3 30 -15 44 -24 28 -25 31 -5 24 8 -4 15 -10 15 -14 0 -4
35 -52 79 -106 68 -86 128 -148 283 -292 l37 -35 1 241 c0 203 -3 254 -19 329
-23 105 -36 203 -26 203 3 0 15 -5 26 -10 19 -11 19 -3 19 429 0 242 -4 442
-9 445 -5 3 -6 26 -3 52 3 27 1 49 -6 53 -7 4 -7 22 -1 56 11 56 2 185 -13
185 -5 0 -9 -17 -8 -37 4 -90 0 -123 -15 -123 -11 0 -15 -11 -15 -40 0 -39 -1
-40 -35 -40 -25 0 -35 -4 -35 -16 0 -8 -4 -12 -10 -9 -5 3 -10 -1 -10 -9 0 -9
5 -16 11 -16 6 0 7 -5 2 -12 -4 -7 -8 -22 -9 -33 -1 -27 -42 -93 -65 -106 -15
-8 -19 -21 -19 -65 l0 -56 -43 3 c-40 4 -43 2 -39 -18 2 -13 -5 -30 -19 -44
-22 -22 -22 -22 -17 -1 6 21 5 21 -23 7 -15 -9 -26 -21 -23 -28 2 -7 -13 -23
-35 -37 -22 -14 -41 -28 -41 -32 0 -5 -9 -8 -20 -8 -11 0 -20 -4 -20 -9 0 -5
13 -8 28 -6 16 2 35 -1 43 -7 11 -8 10 -9 -4 -4 -34 11 -128 -59 -112 -83 3
-6 3 -17 -2 -23 -4 -7 -8 -26 -9 -43 -1 -16 -7 -61 -13 -100 -6 -38 -14 -137
-18 -220 l-7 -150 -8 105 c-4 58 -12 106 -18 108 -5 2 -10 13 -10 25 0 11 -16
35 -35 53 l-35 32 0 -26 c0 -21 -3 -23 -12 -14 -10 10 -10 17 0 32 20 32 14
40 -27 40 -39 0 -64 -23 -36 -34 13 -5 10 -46 -4 -46 -14 0 -32 42 -23 53 14
19 22 71 12 87 -10 15 -12 13 -24 -35 -6 -21 0 27 9 80 5 29 5 29 -10 -5 l-15
-35 5 35 c30 226 52 574 37 584 -10 6 -15 -35 -28 -239 -11 -187 -43 -392 -90
-581 -25 -104 -49 -191 -53 -194 -3 -3 -7 -24 -7 -46 -1 -23 -6 -49 -11 -58
-6 -11 -7 8 -5 51 3 38 9 71 15 74 5 4 7 14 4 23 -4 9 -3 26 2 39 6 15 4 29
-5 42 -8 10 -14 40 -14 66 0 45 -18 77 -34 61 -4 -4 -6 0 -4 8 2 11 -4 14 -22
13 -14 -1 -20 1 -13 3 9 4 10 11 1 27 -6 12 -14 28 -18 36 -8 19 -30 26 -30
11 0 -6 5 -8 10 -5 6 3 10 1 10 -4 0 -18 -28 -13 -50 9 -10 10 -17 28 -15 39
2 11 1 20 -3 20 -20 -3 -31 3 -35 19 -3 11 -7 7 -12 -15 -4 -18 -11 -33 -15
-33 -6 0 -2 40 8 83 1 4 2 14 2 23 0 8 5 12 10 9 6 -3 10 5 10 19 0 14 -5 28
-11 32 -7 4 -9 23 -4 53 3 25 8 64 10 86 2 22 1 27 -2 10 -2 -16 -11 -54 -19
-84 -10 -39 -11 -58 -3 -67 8 -9 8 -23 1 -46 -6 -18 -14 -53 -18 -78 -4 -25
-9 -40 -11 -33 -5 13 11 105 23 138 4 12 3 17 -2 12 -14 -13 -43 -129 -36
-145 3 -9 1 -13 -5 -9 -11 7 -68 -175 -98 -308 -24 -109 -37 -159 -45 -168 -8
-9 40 225 69 338 11 44 25 127 31 185 6 58 16 143 21 190 15 129 22 479 11
525 l-10 40 -3 -45 c-5 -79 -6 -84 -15 -120 l-9 -35 -6 55 -6 55 -1 -59 c-1
-33 -5 -56 -9 -53 -9 9 -36 -31 -28 -42 3 -6 -4 -25 -16 -43 -12 -18 -18 -24
-15 -14 6 16 4 17 -9 6 -8 -7 -13 -20 -10 -30 3 -11 -3 -21 -19 -30 -22 -11
-24 -18 -20 -59 3 -25 7 -51 9 -58 2 -6 -3 -17 -11 -23 -12 -11 -14 -4 -14 44
0 32 -4 56 -10 56 -7 0 -9 -27 -7 -75 4 -56 1 -80 -9 -90 -11 -11 -13 -37 -10
-112 l5 -98 -9 80 c-42 374 -93 664 -143 820 l-32 100 -2 389 c-2 214 -4 391
-6 393 -2 1 -7 0 -10 -4z m-380 -635 c-3 -8 -6 -5 -6 6 -1 11 2 17 5 13 3 -3
4 -12 1 -19z m-170 -494 c-3 -3 -12 -4 -19 -1 -8 3 -5 6 6 6 11 1 17 -2 13 -5z
m161 -1 c-27 -2 -69 -2 -95 0 -27 2 -5 3 47 3 52 0 74 -1 48 -3z m-151 -29
c-3 -3 -12 -4 -19 -1 -8 3 -5 6 6 6 11 1 17 -2 13 -5z m963 -29 c0 -8 -2 -15
-4 -15 -2 0 -6 7 -10 15 -3 8 -1 15 4 15 6 0 10 -7 10 -15z m-1450 -25 c0 -5
-5 -10 -11 -10 -5 0 -7 5 -4 10 3 6 8 10 11 10 2 0 4 -4 4 -10z m1417 -32 c-3
-7 -5 -2 -5 12 0 14 2 19 5 13 2 -7 2 -19 0 -25z m-1428 6 c2 -2 -19 -4 -48
-4 -29 0 -50 4 -47 9 5 8 85 4 95 -5z m1408 -6 c-3 -8 -6 -5 -6 6 -1 11 2 17
5 13 3 -3 4 -12 1 -19z m-1519 -3 c-2 -1 -25 -5 -53 -8 l-50 -6 40 13 c32 11
75 11 63 1z m1559 -37 c-3 -7 -5 -2 -5 12 0 14 2 19 5 13 2 -7 2 -19 0 -25z
m-1447 4 c0 -7 -4 -10 -10 -7 -5 3 -10 -2 -11 -12 0 -14 -2 -15 -6 -3 -9 24
-22 28 -82 25 -52 -2 -53 -2 -11 4 75 11 120 9 120 -7z m-152 -17 c2 -2 -13
-5 -32 -7 -19 -2 -32 0 -29 4 2 5 -8 6 -24 3 -22 -4 -24 -3 -8 4 17 7 82 4 93
-4z m112 -4 c0 -4 -11 -6 -25 -3 -14 2 -25 6 -25 8 0 2 11 4 25 4 14 0 25 -4
25 -9z m747 -23 c-3 -7 -5 -2 -5 12 0 14 2 19 5 13 2 -7 2 -19 0 -25z m1923
-284 c0 -8 -4 -12 -10 -9 -5 3 -10 10 -10 16 0 5 5 9 10 9 6 0 10 -7 10 -16z
m-400 -81 c0 -9 -6 -7 -18 5 -11 11 -14 20 -8 24 11 7 26 -9 26 -29z m407 -15
c-3 -7 -5 -2 -5 12 0 14 2 19 5 13 2 -7 2 -19 0 -25z m-380 -10 c-3 -7 -5 -2
-5 12 0 14 2 19 5 13 2 -7 2 -19 0 -25z m-20 -30 c-3 -7 -5 -2 -5 12 0 14 2
19 5 13 2 -7 2 -19 0 -25z m-26 -14 c-5 -16 -10 -21 -10 -12 -1 18 10 51 15
45 2 -1 -1 -16 -5 -33z m-3781 6 c0 -4 -9 -10 -21 -13 -15 -4 -18 -2 -10 7 6
7 8 16 4 20 -4 4 0 4 10 0 9 -3 17 -10 17 -14z m-60 -27 c-8 -3 -28 -11 -45
-18 -81 -34 -146 -57 -150 -53 -6 6 175 77 195 76 13 0 13 0 0 -5z m3827 -55
c-3 -7 -5 -2 -5 12 0 14 2 19 5 13 2 -7 2 -19 0 -25z m-950 -75 c-2 -21 -4 -6
-4 32 0 39 2 55 4 38 2 -18 2 -50 0 -70z m656 18 c-2 -3 -8 0 -13 5 -6 6 -7
25 -3 45 l8 34 5 -40 c3 -22 4 -42 3 -44z m-3753 29 c-8 -5 -22 -9 -30 -9 -10
0 -8 3 5 9 27 12 43 12 25 0z m4037 -47 c-3 -10 -5 -2 -5 17 0 19 2 27 5 18 2
-10 2 -26 0 -35z m-4137 7 c-8 -5 -19 -10 -25 -10 -5 0 -3 5 5 10 8 5 20 10
25 10 6 0 3 -5 -5 -10z m3407 -27 c-3 -10 -5 -4 -5 12 0 17 2 24 5 18 2 -7 2
-21 0 -30z m419 -25 c-14 -38 -18 -29 -10 23 5 32 9 38 14 24 4 -10 2 -32 -4
-47z m-3876 32 c-8 -5 -19 -10 -25 -10 -5 0 -3 5 5 10 8 5 20 10 25 10 6 0 3
-5 -5 -10z m1054 -6 c4 -9 3 -20 0 -23 -4 -3 -9 0 -11 7 -3 6 -14 12 -26 12
-18 0 -19 2 -7 10 22 14 37 12 44 -6z m-67 -31 c0 -16 -2 -22 -4 -15 -3 6 -9
9 -15 6 -5 -3 -4 3 4 15 7 12 13 21 14 21 1 0 1 -12 1 -27z m3190 -110 c-2
-21 -4 -6 -4 32 0 39 2 55 4 38 2 -18 2 -50 0 -70z m-3228 13 c-2 -2 -15 -9
-29 -15 -24 -11 -24 -11 -6 3 16 13 49 24 35 12z m2888 -38 c-3 -8 -6 -5 -6 6
-1 11 2 17 5 13 3 -3 4 -12 1 -19z m-1180 -30 c-3 -8 -6 -5 -6 6 -1 11 2 17 5
13 3 -3 4 -12 1 -19z m-1737 2 c0 -5 -8 -10 -17 -10 -15 0 -16 2 -3 10 19 12
20 12 20 0z m-88 -20 c149 -55 347 -69 466 -31 53 16 63 17 58 4 -3 -8 -6 -21
-6 -29 0 -24 -101 -64 -161 -64 -58 0 -186 20 -282 45 -93 24 -165 64 -152 84
9 15 16 14 77 -9z m3336 -280 c-4 -8 -7 55 -6 140 l2 155 6 -140 c3 -77 2
-147 -2 -155z m-135 238 c-3 -16 -10 -28 -15 -28 -5 0 -7 -4 -4 -8 3 -5 -6
-37 -19 -73 -13 -35 -24 -60 -24 -55 -2 24 58 201 65 194 1 -2 0 -15 -3 -30z
m44 0 c-3 -8 -6 -5 -6 6 -1 11 2 17 5 13 3 -3 4 -12 1 -19z m-3 -28 c10 -13 9
-13 -6 -1 -10 7 -18 21 -17 30 0 13 1 14 6 1 3 -8 11 -22 17 -30z m-335 -135
c0 -5 -4 -3 -9 5 -5 8 -9 22 -9 30 0 16 17 -16 18 -35z m-12 -37 c-3 -8 -6 -5
-6 6 -1 11 2 17 5 13 3 -3 4 -12 1 -19z m410 -50 c-2 -13 -4 -3 -4 22 0 25 2
35 4 23 2 -13 2 -33 0 -45z m-194 7 c-3 -9 -8 -14 -10 -11 -3 3 -2 9 2 15 9
16 15 13 8 -4z m-899 -42 c-5 -5 -12 -12 -16 -18 -4 -6 -8 -2 -8 8 0 9 7 17
17 17 9 0 12 -3 7 -7z m1336 -33 c0 -5 -2 -10 -4 -10 -3 0 -8 5 -11 10 -3 6
-1 10 4 10 6 0 11 -4 11 -10z m-127 -45 c-3 -9 -8 -14 -10 -11 -3 3 -2 9 2 15
9 16 15 13 8 -4z m164 -77 c-3 -7 -5 -2 -5 12 0 14 2 19 5 13 2 -7 2 -19 0
-25z m-599 -93 c-6 -14 -13 -23 -15 -21 -5 5 15 46 22 46 3 0 -1 -11 -7 -25z
m-67 -108 c-10 -9 -11 -8 -5 6 3 10 9 15 12 12 3 -3 0 -11 -7 -18z m704 5 c-3
-3 -11 0 -18 7 -9 10 -8 11 6 5 10 -3 15 -9 12 -12z m99 -83 c-6 -11 -24 -2
-24 11 0 5 7 7 15 4 8 -4 12 -10 9 -15z m-1523 -846 c-12 -20 -14 -14 -5 12 4
9 9 14 11 11 3 -2 0 -13 -6 -23z m-40 -80 c-12 -20 -14 -14 -5 12 4 9 9 14 11
11 3 -2 0 -13 -6 -23z m-3152 -3 c64 -20 144 -32 496 -70 189 -21 801 -103
1180 -160 110 -16 230 -33 268 -36 37 -4 67 -10 67 -14 0 -13 -49 -105 -82
-155 l-33 -50 -73 -3 c-55 -2 -72 -6 -72 -17 0 -12 17 -15 80 -15 86 0 100 -8
115 -71 6 -24 3 -28 -32 -39 -21 -7 -76 -31 -123 -53 -185 -86 -453 -180 -565
-198 -101 -16 -264 -7 -435 25 -201 38 -296 73 -430 162 -134 88 -450 371
-450 402 0 23 32 92 43 92 5 0 38 -14 73 -31 71 -35 100 -34 32 1 -50 25 -114
83 -134 122 -18 34 -19 128 -1 128 6 0 41 -9 76 -20z m3141 -28 c0 -5 -7 -17
-15 -28 -14 -18 -14 -17 -4 9 12 27 19 34 19 19z m-83 -170 c-28 -62 -56 -112
-60 -112 -4 0 -4 8 1 18 5 9 31 61 57 114 27 54 50 96 52 95 2 -2 -21 -54 -50
-115z m-1040 -38 c-3 -3 -12 -4 -19 -1 -8 3 -5 6 6 6 11 1 17 -2 13 -5z m969
-111 c-8 -16 -25 -54 -37 -85 -12 -31 -26 -55 -31 -52 -4 3 -8 -5 -8 -18 0
-29 -54 -121 -65 -111 -4 5 -5 0 -2 -9 6 -18 -40 -105 -77 -143 -17 -18 -17
-16 2 18 12 20 19 37 17 37 -9 0 -38 -51 -39 -70 -1 -25 -74 -100 -188 -192
-93 -75 -128 -100 -413 -293 -175 -119 -180 -122 -171 -107 3 5 0 13 -6 16 -7
3 -2 3 11 0 17 -5 21 -3 16 6 -5 9 -4 11 3 6 7 -4 12 -1 12 8 0 9 5 17 10 17
6 1 14 2 20 3 5 0 19 9 30 19 11 9 26 17 34 17 8 0 24 11 37 25 13 13 29 25
34 25 6 0 26 13 45 30 19 16 41 29 48 30 7 0 10 5 6 12 -4 6 -3 8 4 4 6 -3 13
-2 17 4 3 5 46 37 95 71 50 34 88 64 85 69 -2 4 7 12 20 18 14 7 25 16 25 21
0 16 -27 31 -44 25 -19 -7 -21 -20 -3 -28 6 -2 1 -4 -13 -3 -14 1 -24 -3 -23
-8 1 -6 -7 -11 -17 -12 -18 -2 -29 -8 -65 -41 -8 -7 -15 -10 -15 -5 0 12 61
61 165 132 28 19 52 38 53 43 2 4 8 8 13 8 5 0 2 -11 -7 -25 -9 -14 -12 -25
-8 -26 5 -1 -2 -4 -16 -9 -23 -7 -24 -8 -6 -15 13 -6 21 -4 24 3 2 7 12 12 23
12 10 0 19 4 19 10 0 5 -7 6 -17 3 -11 -4 -14 -3 -9 6 5 7 14 10 21 7 13 -5
61 26 77 49 4 5 8 20 8 33 0 12 5 22 11 22 6 0 8 -7 5 -16 -5 -14 -4 -15 8 -5
8 7 12 19 9 27 -3 8 5 26 18 40 13 13 25 36 27 50 3 28 47 82 58 72 3 -4 -4
-21 -16 -38 -12 -17 -20 -34 -17 -36 3 -3 11 5 18 18 6 12 16 26 22 29 5 4 10
26 10 49 0 41 0 42 13 19 16 -29 18 -21 4 18 -10 27 -9 27 6 8 14 -19 15 -17
10 27 -7 57 12 85 46 67 11 -6 18 -7 15 -2 -11 17 13 80 40 112 34 38 38 39
19 4z m-253 -363 c-5 -20 -21 -36 -28 -28 -5 4 23 48 30 48 2 0 1 -9 -2 -20z
m-333 -324 c0 -2 -7 -7 -16 -10 -8 -3 -12 -2 -9 4 6 10 25 14 25 6z m-1590
-60 c0 -2 -13 -6 -30 -8 -16 -3 -30 -1 -30 4 0 4 14 8 30 8 17 0 30 -2 30 -4z
m63 -13 c-7 -2 -19 -2 -25 0 -7 3 -2 5 12 5 14 0 19 -2 13 -5z m1721 -9 c3 -8
2 -12 -4 -9 -6 3 -10 -1 -10 -9 0 -9 -4 -16 -10 -16 -14 0 -13 23 2 38 15 15
15 15 22 -4z m-1564 -4 c15 -5 -4 -6 -45 -3 -38 3 -72 7 -74 9 -8 7 94 2 119
-6z m98 -7 c-10 -2 -28 -2 -40 0 -13 2 -5 4 17 4 22 1 32 -1 23 -4z m65 0 c-7
-2 -21 -2 -30 0 -10 3 -4 5 12 5 17 0 24 -2 18 -5z m994 -33 c-14 -11 -29 -20
-34 -20 -10 1 39 39 51 40 5 0 -3 -9 -17 -20z m373 -7 c0 -11 -49 -90 -50 -81
0 15 35 88 42 88 5 0 8 -3 8 -7z m-430 -28 c-7 -9 -15 -13 -19 -10 -3 3 1 10
9 15 21 14 24 12 10 -5z m-75 -55 c-3 -5 -12 -10 -18 -10 -7 0 -6 4 3 10 19
12 23 12 15 0z m-145 -85 c0 -2 -10 -9 -22 -15 -22 -11 -22 -10 -4 4 21 17 26
19 26 11z m35 -61 c-37 -28 -60 -35 -30 -9 17 14 29 31 27 38 -3 9 0 8 10 -1
11 -11 10 -16 -7 -28z m-45 2 c0 -2 -8 -10 -17 -17 -16 -13 -17 -12 -4 4 13
16 21 21 21 13z m-20 -42 c0 -8 -19 -13 -24 -6 -3 5 1 9 9 9 8 0 15 -2 15 -3z
m-47 -24 c4 0 5 5 1 12 -5 7 -3 8 5 3 9 -5 10 -10 2 -18 -8 -8 -15 -6 -26 6
-8 9 -10 12 -3 7 7 -6 16 -10 21 -10z m-59 -44 c-10 -8 -21 -12 -24 -10 -5 6
21 24 34 24 6 0 1 -6 -10 -14z m-34 -21 c0 -2 -10 -9 -22 -15 -22 -11 -22 -10
-4 4 21 17 26 19 26 11z m-86 -23 c-11 -10 -19 -23 -17 -29 2 -6 -1 -14 -6
-18 -7 -4 -8 0 -4 11 5 13 3 15 -8 10 -8 -4 0 4 16 18 17 14 32 26 35 26 3 -1
-4 -8 -16 -18z m-58 -20 c-9 -9 -56 -11 -51 -2 3 5 13 6 22 3 11 -4 14 -3 9 5
-5 8 -2 10 9 6 9 -4 14 -9 11 -12z m84 3 c-7 -8 -18 -15 -24 -15 -6 0 -2 7 8
15 25 19 32 19 16 0z m-96 -37 c-5 -8 -1 -9 12 -5 18 7 18 6 -1 -9 -41 -32
-51 -34 -74 -13 -12 12 -20 24 -17 27 3 3 15 -3 26 -13 20 -18 21 -18 14 0 -5
11 -4 16 2 12 6 -3 16 -2 24 4 20 12 23 11 14 -3z m-102 -49 c-13 -5 -21 -13
-17 -19 3 -6 -1 -7 -10 -4 -14 6 -14 8 2 20 10 7 25 13 33 13 8 0 5 -4 -8 -10z
m43 -8 c-8 -14 -105 -72 -105 -63 0 4 20 18 45 31 25 13 45 28 45 32 0 5 5 9
11 9 5 0 8 -4 4 -9z m-2517 -167 c42 -19 70 -34 62 -34 -20 0 -210 91 -210
101 0 5 16 -1 35 -13 20 -11 70 -36 113 -54z m2362 72 c0 -3 -4 -8 -10 -11 -5
-3 -10 -1 -10 4 0 6 5 11 10 11 6 0 10 -2 10 -4z m-2253 -112 c-3 -3 -12 -4
-19 -1 -8 3 -5 6 6 6 11 1 17 -2 13 -5z m40 -10 c-3 -3 -12 -4 -19 -1 -8 3 -5
6 6 6 11 1 17 -2 13 -5z m76 -21 c-7 -2 -19 -2 -25 0 -7 3 -2 5 12 5 14 0 19
-2 13 -5z m1088 -40 c13 -16 12 -17 -3 -4 -17 13 -22 21 -14 21 2 0 10 -8 17
-17z m89 -54 c0 -3 20 -12 45 -19 25 -7 48 -17 51 -21 3 -5 -7 -4 -22 1 -15 6
-34 8 -41 6 -8 -3 -11 -1 -8 4 3 6 2 10 -4 10 -9 0 -77 42 -91 57 -3 2 12 -3
33 -13 20 -10 37 -21 37 -25z m143 -46 c-7 -2 -19 -2 -25 0 -7 3 -2 5 12 5 14
0 19 -2 13 -5z m64 -9 c-3 -3 -12 -4 -19 -1 -8 3 -5 6 6 6 11 1 17 -2 13 -5z
m151 -11 c-10 -2 -26 -2 -35 0 -10 3 -2 5 17 5 19 0 27 -2 18 -5z m-177 -948
l-8 -100 -2 96 c-1 81 4 118 15 107 1 -2 -1 -48 -5 -103z m-1951 0 c14 -8 21
-14 15 -14 -5 0 -21 6 -35 14 -14 8 -20 14 -15 14 6 0 21 -6 35 -14z m165 -69
c61 -25 104 -46 97 -46 -16 0 -232 90 -232 97 0 3 6 3 13 0 6 -3 62 -26 122
-51z m220 -82 c73 -28 60 -31 -18 -5 -63 22 -111 47 -67 35 14 -4 52 -17 85
-30z m120 -39 c39 -17 21 -18 -25 0 -19 7 -28 14 -20 14 8 0 29 -6 45 -14z"/>
<path d="M3435 5144 c19 -14 54 -25 125 -39 50 -10 32 3 -26 19 -27 8 -65 19
-84 25 -32 9 -33 9 -15 -5z"/>
<path d="M3670 3002 c8 -6 89 -15 180 -21 199 -13 203 -13 196 -2 -3 4 -56 11
-118 15 -62 4 -149 9 -193 12 -53 3 -75 2 -65 -4z"/>
<path d="M4964 2531 c20 -22 26 -25 26 -13 0 4 -10 13 -22 21 -23 14 -23 14
-4 -8z"/>
<path d="M4010 1859 c0 -5 5 -7 10 -4 6 3 10 8 10 11 0 2 -4 4 -10 4 -5 0 -10
-5 -10 -11z"/>
<path d="M591 7174 c-142 -67 -401 -138 -566 -158 -23 -2 -20 -3 12 -5 63 -2
183 24 341 74 135 43 292 107 292 119 0 7 8 11 -79 -30z"/>
<path d="M4284 6987 c-21 -19 -82 -64 -134 -102 -52 -37 -102 -73 -110 -79 -8
-6 18 24 58 66 111 116 86 105 -40 -18 -62 -61 -141 -132 -175 -157 -88 -67
-263 -177 -383 -241 -69 -36 -96 -55 -84 -58 11 -2 33 6 49 18 17 12 62 39
100 60 103 56 227 136 340 220 55 41 132 95 170 121 70 46 255 191 255 199 0
8 -7 4 -46 -29z"/>
<path d="M2312 6905 c0 -16 2 -22 5 -12 2 9 2 23 0 30 -3 6 -5 -1 -5 -18z"/>
<path d="M991 6662 c-64 -128 -111 -268 -156 -472 -44 -199 -65 -336 -64 -410
1 -40 5 -24 14 60 14 131 32 225 81 428 40 165 72 257 137 395 26 53 44 97 42
97 -3 0 -27 -44 -54 -98z"/>
<path d="M4680 6644 c0 -8 5 -12 10 -9 6 4 8 11 5 16 -9 14 -15 11 -15 -7z"/>
<path d="M4611 6557 c-13 -21 -12 -21 5 -5 10 10 16 20 13 22 -3 3 -11 -5 -18
-17z"/>
<path d="M1447 6543 c-42 -74 -162 -604 -202 -888 -20 -145 -35 -375 -33 -500
2 -109 2 -102 18 180 20 339 105 822 196 1110 14 44 27 86 29 93 5 13 -1 17
-8 5z"/>
<path d="M3786 6398 c-15 -35 -38 -80 -52 -100 -31 -49 -31 -61 1 -23 l25 30
-15 -44 c-8 -24 -13 -46 -11 -48 2 -2 12 20 21 49 9 29 28 84 42 121 32 87 24
97 -11 15z"/>
<path d="M4527 6407 l-17 -32 20 24 c17 20 26 41 18 41 -2 0 -11 -15 -21 -33z"/>
<path d="M1739 6383 c-2 -16 -1 -66 2 -113 l6 -85 1 113 c2 108 -2 141 -9 85z"/>
<path d="M4500 6353 c0 -6 8 -17 18 -24 16 -13 16 -13 2 6 -8 11 -16 22 -17
24 -2 2 -3 0 -3 -6z"/>
<path d="M6051 6344 c0 -11 3 -14 6 -6 3 7 2 16 -1 19 -3 4 -6 -2 -5 -13z"/>
<path d="M6035 6299 c-4 -6 -5 -12 -2 -15 2 -3 7 2 10 11 7 17 1 20 -8 4z"/>
<path d="M740 6260 c-18 -12 -2 -12 25 0 13 6 15 9 5 9 -8 0 -22 -4 -30 -9z"/>
<path d="M6042 6250 c0 -14 2 -19 5 -12 2 6 2 18 0 25 -3 6 -5 1 -5 -13z"/>
<path d="M6022 6240 c0 -14 2 -19 5 -12 2 6 2 18 0 25 -3 6 -5 1 -5 -13z"/>
<path d="M680 6235 c-14 -8 -20 -14 -15 -14 6 0 21 6 35 14 14 8 21 14 15 14
-5 0 -21 -6 -35 -14z"/>
<path d="M4461 6214 c0 -11 3 -14 6 -6 3 7 2 16 -1 19 -3 4 -6 -2 -5 -13z"/>
<path d="M620 6210 c-17 -11 -162 -58 -330 -106 -63 -18 -108 -33 -99 -33 29
-1 417 116 441 133 24 17 13 22 -12 6z"/>
<path d="M2348 6057 c-56 -167 -88 -308 -87 -374 l2 -58 8 62 c15 120 98 429
119 443 4 3 5 13 1 22 -4 10 -20 -25 -43 -95z"/>
<path d="M1030 6106 c-6 -29 -17 -62 -25 -72 -8 -11 -15 -23 -15 -28 0 -6 6
-1 14 10 13 17 14 8 11 -81 l-4 -100 13 125 c8 69 17 142 21 163 4 20 5 37 2
37 -3 0 -11 -24 -17 -54z"/>
<path d="M4455 6140 c3 -5 11 -10 16 -10 6 0 7 5 4 10 -3 6 -11 10 -16 10 -6
0 -7 -4 -4 -10z"/>
<path d="M2244 5935 c0 -99 2 -138 3 -87 2 51 2 132 0 180 -1 48 -3 6 -3 -93z"/>
<path d="M148 6063 c7 -3 16 -2 19 1 4 3 -2 6 -13 5 -11 0 -14 -3 -6 -6z"/>
<path d="M48 6053 c6 -2 18 -2 25 0 6 3 1 5 -13 5 -14 0 -19 -2 -12 -5z"/>
<path d="M2900 6020 c0 -5 5 -10 11 -10 20 0 105 -65 187 -144 64 -62 82 -85
78 -100 -5 -21 -5 -21 9 -2 8 11 15 25 15 30 0 16 -159 167 -214 204 -49 32
-86 41 -86 22z"/>
<path d="M975 5979 c-4 -6 -5 -12 -2 -15 2 -3 7 2 10 11 7 17 1 20 -8 4z"/>
<path d="M1891 5880 c-7 -41 -23 -131 -36 -200 -28 -148 -42 -293 -26 -270 6
8 11 31 11 51 0 20 16 130 35 245 20 115 34 218 33 229 -2 11 -9 -14 -17 -55z"/>
<path d="M5831 5924 c0 -11 3 -14 6 -6 3 7 2 16 -1 19 -3 4 -6 -2 -5 -13z"/>
<path d="M3436 5871 c-10 -11 -14 -21 -9 -22 4 -2 18 -26 31 -54 13 -27 34
-63 46 -78 41 -50 36 -7 -9 85 -41 83 -44 86 -59 69z"/>
<path d="M4209 5853 c-13 -16 -12 -17 4 -4 9 7 17 15 17 17 0 8 -8 3 -21 -13z"/>
<path d="M4226 5833 c-6 -14 -5 -15 5 -6 7 7 10 15 7 18 -3 3 -9 -2 -12 -12z"/>
<path d="M5832 5815 c0 -16 2 -22 5 -12 2 9 2 23 0 30 -3 6 -5 -1 -5 -18z"/>
<path d="M996 5718 c-3 -50 -6 -152 -6 -227 0 -129 -2 -141 -29 -206 -16 -38
-27 -72 -25 -75 9 -8 35 32 41 63 10 47 22 16 25 -63 2 -46 -4 -105 -15 -152
-31 -141 -17 -301 35 -387 12 -20 39 -56 61 -81 47 -54 63 -84 94 -170 17 -47
22 -55 19 -30 -8 66 -47 149 -112 235 -35 48 -67 99 -70 113 -3 15 -10 40 -15
56 -13 40 -11 201 2 270 7 31 13 55 15 53 2 -2 15 -75 29 -163 30 -183 51
-283 72 -332 23 -54 24 -32 3 43 -25 88 -64 299 -92 500 -17 127 -22 210 -22
403 0 133 -1 242 -2 242 0 0 -4 -41 -8 -92z"/>
<path d="M1557 5703 c-10 -36 -26 -119 -31 -163 -5 -40 -4 -42 6 -20 7 14 13
26 14 28 1 2 16 -3 32 -12 45 -23 142 -37 142 -19 0 7 -9 13 -19 13 -10 0 -49
9 -85 20 -57 18 -66 24 -66 45 0 51 6 54 69 35 31 -10 72 -20 91 -22 l35 -3 1
50 c1 47 1 47 -3 7 -3 -31 -8 -42 -17 -39 -7 3 -48 16 -90 29 -70 21 -76 25
-71 46 6 26 -1 30 -8 5z"/>
<path d="M1380 5593 c-17 -105 -23 -362 -12 -503 9 -108 9 -101 11 127 0 133
6 288 12 343 6 56 9 103 6 106 -2 3 -10 -30 -17 -73z"/>
<path d="M4653 5654 c3 -4 2 -15 -4 -26 -6 -11 -13 -17 -16 -14 -4 3 -12 -3
-20 -13 -7 -11 -28 -21 -46 -23 -27 -2 -31 -7 -29 -25 2 -16 -2 -23 -13 -23
-11 0 -14 -7 -11 -26 3 -15 -1 -36 -9 -48 -11 -15 -15 -16 -15 -5 0 8 5 20 11
26 7 7 6 12 -4 16 -8 3 -14 0 -14 -6 1 -38 -5 -59 -21 -75 -10 -10 -22 -26
-25 -36 -4 -9 -11 -15 -16 -11 -6 3 -26 -19 -45 -49 -37 -58 -79 -136 -73
-136 2 0 17 19 34 43 17 23 70 80 118 127 120 118 152 159 134 172 -11 8 -10
9 3 4 21 -6 65 48 65 79 0 11 3 28 8 38 5 11 3 17 -6 17 -7 0 -9 -3 -6 -6z
m-13 -79 c-7 -8 -17 -15 -23 -15 -6 0 -2 7 9 15 25 19 30 19 14 0z"/>
<path d="M4683 5653 c4 -3 0 -15 -10 -25 -9 -10 -13 -21 -10 -25 8 -8 36 26
37 45 0 6 -5 12 -12 12 -6 0 -8 -3 -5 -7z"/>
<path d="M6541 5644 c0 -11 3 -14 6 -6 3 7 2 16 -1 19 -3 4 -6 -2 -5 -13z"/>
<path d="M6728 5635 c3 -19 8 -23 15 -16 8 8 7 16 -5 27 -14 14 -15 14 -10
-11z"/>
<path d="M4511 5624 c0 -11 3 -14 6 -6 3 7 2 16 -1 19 -3 4 -6 -2 -5 -13z"/>
<path d="M4542 5620 c0 -14 2 -19 5 -12 2 6 2 18 0 25 -3 6 -5 1 -5 -13z"/>
<path d="M6763 5613 c-3 -10 -8 -22 -10 -28 -3 -5 3 -1 11 9 16 20 21 36 11
36 -3 0 -8 -8 -12 -17z"/>
<path d="M3060 5610 c0 -5 5 -10 10 -10 6 0 10 5 10 10 0 6 -4 10 -10 10 -5 0
-10 -4 -10 -10z"/>
<path d="M6145 5590 c-3 -5 -1 -10 4 -10 6 0 11 5 11 10 0 6 -2 10 -4 10 -3 0
-8 -4 -11 -10z"/>
<path d="M926 5479 c-114 -250 -131 -325 -131 -589 1 -263 10 -297 170 -575
35 -60 89 -171 120 -245 98 -236 106 -251 144 -267 46 -20 181 -30 181 -14 0
7 -19 11 -51 11 -77 0 -137 18 -159 49 -10 15 -43 88 -73 163 -63 155 -95 220
-183 374 -35 60 -75 140 -89 177 -52 138 -58 408 -15 616 13 61 44 157 76 234
61 149 68 193 10 66z"/>
<path d="M6726 5503 c-6 -14 -5 -15 5 -6 7 7 10 15 7 18 -3 3 -9 -2 -12 -12z"/>
<path d="M6751 5464 c0 -11 3 -14 6 -6 3 7 2 16 -1 19 -3 4 -6 -2 -5 -13z"/>
<path d="M23 5453 c-13 -2 -23 -9 -23 -14 0 -12 2 -12 41 6 33 14 27 17 -18 8z"/>
<path d="M6725 5449 c-4 -6 -5 -12 -2 -15 2 -3 7 2 10 11 7 17 1 20 -8 4z"/>
<path d="M6657 5443 c-14 -13 -6 -23 18 -23 18 0 23 4 19 15 -6 16 -26 20 -37
8z"/>
<path d="M1332 5311 c-14 -46 -48 -266 -56 -366 -6 -69 -5 -72 50 -195 70
-156 96 -235 88 -266 -5 -19 -3 -23 10 -18 19 7 17 17 26 -131 l6 -120 2 120
c1 150 -21 238 -104 415 -58 124 -59 126 -57 210 0 47 13 152 27 235 14 82 24
151 22 152 -1 2 -8 -14 -14 -36z"/>
<path d="M153 5333 c9 -2 23 -2 30 0 6 3 -1 5 -18 5 -16 0 -22 -2 -12 -5z"/>
<path d="M6411 5324 c0 -11 3 -14 6 -6 3 7 2 16 -1 19 -3 4 -6 -2 -5 -13z"/>
<path d="M27 5323 c18 -2 48 -2 66 0 17 2 3 4 -33 4 -36 0 -50 -2 -33 -4z"/>
<path d="M710 5167 c-110 -107 -204 -178 -357 -268 -50 -29 -90 -55 -88 -57 6
-7 177 91 242 139 95 69 333 289 312 289 -2 0 -51 -46 -109 -103z"/>
<path d="M1615 5179 c-4 -6 -5 -12 -2 -15 2 -3 7 2 10 11 7 17 1 20 -8 4z"/>
<path d="M423 4993 c-39 -49 -49 -68 -35 -59 13 8 76 96 68 96 -2 0 -17 -17
-33 -37z"/>
<path d="M1383 4930 c0 -25 2 -35 4 -22 2 12 2 32 0 45 -2 12 -4 2 -4 -23z"/>
<path d="M1530 4926 c-6 -20 -10 -44 -8 -53 3 -10 9 4 15 32 14 59 10 71 -7
21z"/>
<path d="M1393 4825 c0 -27 2 -38 4 -22 2 15 2 37 0 50 -2 12 -4 0 -4 -28z"/>
<path d="M1511 4834 c0 -11 3 -14 6 -6 3 7 2 16 -1 19 -3 4 -6 -2 -5 -13z"/>
<path d="M1442 4720 c0 -36 3 -94 7 -130 l6 -65 14 81 c10 60 10 87 2 100 -9
15 -9 12 -4 -16 3 -19 3 -32 -1 -29 -3 3 -10 33 -15 65 l-9 59 0 -65z"/>
<path d="M1400 4729 c0 -22 4 -38 8 -35 8 5 4 76 -4 76 -2 0 -4 -18 -4 -41z"/>
<path d="M3666 4648 c-14 -46 -32 -110 -40 -143 -8 -33 -35 -136 -60 -228 -42
-155 -57 -239 -45 -251 11 -12 123 -66 135 -66 20 0 95 70 87 83 -3 6 -1 7 5
3 12 -7 102 95 128 145 13 27 14 41 4 102 -12 73 -80 274 -128 380 -37 81 -53
77 -86 -25z"/>
<path d="M1411 4664 c0 -11 3 -14 6 -6 3 7 2 16 -1 19 -3 4 -6 -2 -5 -13z"/>
<path d="M7113 4644 c0 -7 5 -15 12 -17 6 -3 11 3 11 12 0 10 -5 18 -11 18 -7
0 -12 -6 -12 -13z"/>
<path d="M7205 4570 c-8 -13 3 -30 18 -30 8 0 7 3 -2 9 -7 5 -10 14 -7 20 4 6
5 11 2 11 -3 0 -8 -4 -11 -10z"/>
<path d="M7103 4533 c-15 -5 -17 -23 -4 -23 5 0 11 7 15 15 3 8 4 15 3 14 -1
0 -8 -3 -14 -6z"/>
<path d="M1226 4431 c-7 -95 0 -238 11 -227 3 3 5 53 4 111 -1 61 2 105 7 105
9 0 52 -50 118 -135 12 -16 11 -12 -2 15 -19 39 -88 135 -104 145 -5 3 -10 18
-10 33 0 15 -4 33 -9 40 -5 9 -11 -25 -15 -87z"/>
<path d="M7090 4474 c0 -10 28 -33 33 -27 3 3 0 12 -8 19 -14 15 -25 18 -25 8z"/>
<path d="M3160 4042 c0 -4 13 -12 29 -18 17 -7 45 -35 70 -73 23 -33 44 -61
46 -61 28 0 -44 111 -89 140 -35 21 -56 26 -56 12z"/>
<path d="M3555 3948 c-22 -5 -44 -14 -50 -19 -12 -13 105 -2 118 11 13 12 -25
17 -68 8z"/>
<path d="M1545 3160 c2 -19 10 -156 16 -305 8 -201 8 -297 -1 -374 -11 -98 -9
-145 4 -84 12 56 26 256 21 286 -6 39 -25 430 -21 435 2 1 15 -16 29 -40 14
-24 38 -56 52 -73 14 -16 5 4 -21 45 -26 41 -56 91 -66 110 l-18 35 5 -35z"/>
<path d="M1611 2744 c-12 -15 -21 -32 -21 -38 1 -11 24 15 41 47 14 25 3 21
-20 -9z"/>
<path d="M1673 2670 c0 -25 2 -35 4 -22 2 12 2 32 0 45 -2 12 -4 2 -4 -23z"/>
<path d="M1681 2604 c0 -11 3 -14 6 -6 3 7 2 16 -1 19 -3 4 -6 -2 -5 -13z"/>
<path d="M1951 1919 c28 -38 53 -68 56 -65 6 5 -89 135 -100 136 -4 0 16 -32
44 -71z"/>
<path d="M2119 1725 c6 -11 20 -31 31 -45 15 -17 18 -19 11 -5 -6 11 -20 31
-31 45 -15 17 -18 19 -11 5z"/>
<path d="M2220 1601 c5 -11 15 -23 21 -27 6 -3 3 5 -6 20 -20 30 -30 35 -15 7z"/>
<path d="M2292 1534 c10 -10 20 -16 22 -13 3 3 -5 11 -17 18 -21 13 -21 12 -5
-5z"/>
</g>
</svg>
